<svg xmlns="http://www.w3.org/2000/svg" xmlns:xlink="http://www.w3.org/1999/xlink" width="7.163" height="12.722" version="1.1"><g><rect width="7.163" height="12.722" x="0" y="0" opacity="0"/><path fill="#fff" fill-opacity=".85" d="M7.16309 6.35742C7.16309 6.17432 7.08984 6.00586 6.95068 5.87402L1.1499 0.19043C1.01807 0.065918 0.856934 0 0.666504 0C0.292969 0 0 0.285645 0 0.666504C0 0.849609 0.0732422 1.01807 0.19043 1.14258L5.52246 6.35742L0.19043 11.5723C0.0732422 11.6968 0 11.8579 0 12.0483C0 12.4292 0.292969 12.7148 0.666504 12.7148C0.856934 12.7148 1.01807 12.6489 1.1499 12.5171L6.95068 6.84082C7.08984 6.70166 7.16309 6.54053 7.16309 6.35742Z"/></g></svg>