<svg xmlns="http://www.w3.org/2000/svg" width="24" height="24" fill="none" viewBox="0 0 24 24"><path fill="#000" fill-rule="evenodd" d="M12.0007 3.6307C7.37808 3.6307 3.6307 7.37808 3.6307 12.0007C3.6307 16.6233 7.37808 20.3707 12.0007 20.3707C16.6233 20.3707 20.3707 16.6233 20.3707 12.0007C20.3707 7.37808 16.6233 3.6307 12.0007 3.6307ZM1.9707 12.0007C1.9707 6.46129 6.46129 1.9707 12.0007 1.9707C17.5401 1.9707 22.0307 6.46129 22.0307 12.0007C22.0307 17.5401 17.5401 22.0307 12.0007 22.0307C6.46129 22.0307 1.9707 17.5401 1.9707 12.0007Z" clip-rule="evenodd"/><ellipse cx="8.834" cy="10.153" fill="#000" stroke="#000" stroke-width=".33" rx="1.174" ry="1.37"/><ellipse cx="15.174" cy="10.153" fill="#000" stroke="#000" stroke-width=".33" rx="1.174" ry="1.37"/><path stroke="#000" stroke-linecap="round" stroke-width="1.66" d="M15.5 14.5703C15.5 14.5703 14.3627 16.4996 12 16.4996C9.63727 16.4996 8.5 14.5703 8.5 14.5703"/></svg>